<svg xmlns="http://www.w3.org/2000/svg" width="27" height="24" viewBox="0 0 27 24">
  <g id="fax" transform="translate(0 -31)">
    <path id="Path_29" data-name="Path 29" d="M24.627,211H2.373A2.389,2.389,0,0,0,0,213.4v4.8a2.389,2.389,0,0,0,2.373,2.4H5.59v-.8a2.389,2.389,0,0,1,2.373-2.4H19.037a2.389,2.389,0,0,1,2.373,2.4v.8h3.217A2.389,2.389,0,0,0,27,218.2v-4.8A2.389,2.389,0,0,0,24.627,211Zm-7.963,4a.8.8,0,1,1,.791-.8A.8.8,0,0,1,16.664,215Zm3.164,0a.8.8,0,1,1,.791-.8A.8.8,0,0,1,19.828,215Z" transform="translate(0 -170.4)" fill="#161616"/>
    <path id="Path_30" data-name="Path 30" d="M331,32.518v3.119h3.084A3.989,3.989,0,0,0,331,32.518Z" transform="translate(-313.545 -1.437)" fill="#161616"/>
    <path id="Path_31" data-name="Path 31" d="M121.791,31a.8.8,0,0,0-.791.8V39h14.238V35.8h-3.955a.8.8,0,0,1-.791-.8V31Z" transform="translate(-114.619)" fill="#161616"/>
    <path id="Path_32" data-name="Path 32" d="M147.865,367.4a.8.8,0,0,0,.791-.8v-4.8a.8.8,0,0,0-.791-.8H136.791a.8.8,0,0,0-.791.8v4.8a.8.8,0,0,0,.791.8Zm-8.7-4h6.328a.8.8,0,0,1,0,1.6h-6.328a.8.8,0,0,1,0-1.6Z" transform="translate(-128.828 -312.4)" fill="#161616"/>
  </g>
</svg>
